<svg version="1.2" xmlns="http://www.w3.org/2000/svg" viewBox="0 0 20 20" width="20" height="20"><path
    fill="#29282d"
    fill-rule="evenodd"
    d="m17.8 11.8c-1.1 1.4-2.8 3.4-4.2 5c-2.7 3-3.1 3.2-3.5 3.2h-0.1c0 0 0 0-0.1 0c-0.3 0-0.8-0.2-3.4-3.2c-1.5-1.6-3.2-3.6-4.3-5c-2.4-3.1-2.4-5.6-1.9-7.2c0.7-2.3 2.7-3.8 4.1-4.3c1.8-0.6 3.8 0 5.6 1.5c1.9-1.6 3.9-2.2 5.6-1.6c1.5 0.5 3.5 2 4.2 4.4c0.4 1.6 0.4 4.1-2 7.2zm-1.3-1c-2 2.4-5.3 6.3-6.5 7.4c-1.1-1.1-4.5-5-6.4-7.4c-1.7-2-2.3-4-1.7-5.7c0.5-1.8 2-2.8 3.1-3.2c1.2-0.5 2.9 0.1 4.4 1.6c0.3 0.3 0.7 0.4 1.1 0.2q0.1-0.1 0.2-0.2c1.5-1.5 3.2-2.1 4.4-1.7c1.1 0.5 2.6 1.5 3.1 3.3c0.5 1.7-0.1 3.7-1.7 5.7z"
  /></svg>
