<?xml version="1.0" encoding="UTF-8"?>
<svg xmlns="http://www.w3.org/2000/svg" xmlns:xlink="http://www.w3.org/1999/xlink" width="12px" height="14px" viewBox="0 0 12 13" version="1.1">
<g id="surface1">
<path style=" stroke:none;fill-rule:nonzero;fill:rgb(0%,0%,0%);fill-opacity:1;" d="M 2.6875 11.375 L 0.199219 11.375 L 0.199219 3.78125 L 2.6875 3.78125 Z M 1.441406 2.746094 C 0.644531 2.746094 0 2.121094 0 1.367188 C 0 0.613281 0.644531 0 1.441406 0 C 2.238281 0 2.882812 0.613281 2.882812 1.367188 C 2.882812 2.121094 2.234375 2.746094 1.441406 2.746094 Z M 11.996094 11.375 L 9.515625 11.375 L 9.515625 7.679688 C 9.515625 6.796875 9.496094 5.667969 8.222656 5.667969 C 6.929688 5.667969 6.730469 6.625 6.730469 7.613281 L 6.730469 11.375 L 4.246094 11.375 L 4.246094 3.78125 L 6.628906 3.78125 L 6.628906 4.816406 L 6.664062 4.816406 C 6.996094 4.21875 7.808594 3.589844 9.019531 3.589844 C 11.539062 3.589844 12 5.160156 12 7.203125 L 12 11.375 Z M 11.996094 11.375 "/>
</g>
</svg>
